<svg width="500" height="320" viewBox="0 0 500 320" fill="none" xmlns="http://www.w3.org/2000/svg">

  <rect width="500" height="320" rx="24" fill="#0D1117"/>

  <line x1="80" y1="240" x2="420" y2="240" stroke="#D6C2A1" stroke-width="3"/>

  <rect x="250" y="150" width="110" height="70" rx="8"
        stroke="#D6C2A1"
        stroke-width="3"/>

  <path d="M230 225H380"
        stroke="#D6C2A1"
        stroke-width="4"
        stroke-linecap="round"/>

  <text x="287" y="192"
        fill="#E6D5B8"
        font-size="24"
        font-family="monospace">
    &lt;/&gt;
  </text>

  <rect x="390" y="185" width="35" height="45" rx="5"
        stroke="#D6C2A1"
        stroke-width="3"/>

  <path d="M425 195
           Q440 200 425 215"
        stroke="#D6C2A1"
        stroke-width="3"
        fill="none"/>

  <rect x="120" y="195" width="40" height="35" rx="4"
        stroke="#D6C2A1"
        stroke-width="3"/>

  <path d="M140 195
           C140 170 140 150 140 130"
        stroke="#D6C2A1"
        stroke-width="3"
        fill="none"/>

  <path d="M140 130 C125 120 125 100 140 90 C155 100 155 120 140 130Z"
        stroke="#D6C2A1"
        stroke-width="2"
        fill="#0D1117"/>

  <path d="M140 155 C115 155 110 135 125 125 C135 115 138 145 140 155Z"
        stroke="#D6C2A1"
        stroke-width="2"
        fill="#0D1117"/>

  <path d="M140 180 C165 180 170 160 155 150 C145 140 142 170 140 180Z"
        stroke="#D6C2A1"
        stroke-width="2"
        fill="#0D1117"/>

  <circle cx="90" cy="80" r="2" fill="#D6C2A1"/>
  <circle cx="410" cy="70" r="2" fill="#D6C2A1"/>
  <circle cx="450" cy="120" r="1.5" fill="#D6C2A1"/>

</svg>
